HIERARCHY
ROOT Hips
{
	OFFSET	0.00	0.00	0.00
	CHANNELS 6 Xposition Yposition Zposition Zrotation Xrotation Yrotation
	JOINT LeftUpLeg
	{
		OFFSET	 0.126116	-0.014019	-0.065224
		CHANNELS 3 Zrotation Xrotation Yrotation
		JOINT LeftLeg
		{
			OFFSET	 0.000000	 0.000000	 0.569914
			CHANNELS 3 Zrotation Xrotation Yrotation
			JOINT LeftFoot
			{
				OFFSET	 0.000000	 0.000000	 0.544423
				CHANNELS 3 Zrotation Xrotation Yrotation
				JOINT LeftToeBase
				{
					OFFSET	 0.000000	 0.000000	 0.207117
					CHANNELS 3 Zrotation Xrotation Yrotation
					End Site
					{
						OFFSET	 0.000000	 0.000000	 0.207117
					}
				}
			}
		}
	}
	JOINT RightUpLeg
	{
		OFFSET	-0.124023	-0.008373	-0.065224
		CHANNELS 3 Zrotation Xrotation Yrotation
		JOINT RightLeg
		{
			OFFSET	 0.000000	 0.000000	 0.570047
			CHANNELS 3 Zrotation Xrotation Yrotation
			JOINT RightFoot
			{
				OFFSET	 0.000000	 0.000000	 0.544354
				CHANNELS 3 Zrotation Xrotation Yrotation
				JOINT RightToeBase
				{
					OFFSET	 0.000000	 0.000000	 0.207540
					CHANNELS 3 Zrotation Xrotation Yrotation
					End Site
					{
						OFFSET	 0.000000	 0.000000	 0.207540
					}
				}
			}
		}
	}
	JOINT Spine
	{
		OFFSET	 0.000184	-0.007763	 0.117403
		CHANNELS 3 Zrotation Xrotation Yrotation
		JOINT Spine1
		{
			OFFSET	 0.000000	 0.000000	 0.137269
			CHANNELS 3 Zrotation Xrotation Yrotation
			JOINT Spine2
			{
				OFFSET	 0.000000	 0.000000	 0.156879
				CHANNELS 3 Zrotation Xrotation Yrotation
				JOINT LeftShoulder
				{
					OFFSET	 0.080501	-0.002496	 0.160144
					CHANNELS 3 Zrotation Xrotation Yrotation
					JOINT LeftArm
					{
						OFFSET	 0.000000	 0.000000	 0.164363
						CHANNELS 3 Zrotation Xrotation Yrotation
						JOINT LeftForeArm
						{
							OFFSET	 0.000000	 0.000000	 0.364576
							CHANNELS 3 Zrotation Xrotation Yrotation
							JOINT LeftHand
							{
								OFFSET	 0.000000	 0.000000	 0.360812
								CHANNELS 3 Zrotation Xrotation Yrotation
								JOINT LeftHandIndex1
								{
									OFFSET	 0.000000	 0.000000	 0.086006
									CHANNELS 3 Zrotation Xrotation Yrotation
									JOINT LeftHandIndex2
									{
										OFFSET	 0.000000	 0.000000	 0.047237
										CHANNELS 3 Zrotation Xrotation Yrotation
										JOINT LeftHandIndex3
										{
											OFFSET	-0.004284	-0.000551	 0.038165
											CHANNELS 3 Zrotation Xrotation Yrotation
											End Site
											{
												OFFSET	-0.004284	-0.000551	 0.038165
											}
										}
									}
								}
							}
						}
					}
				}
				JOINT Neck
				{
					OFFSET	 0.000000	 0.000000	 0.176489
					CHANNELS 3 Zrotation Xrotation Yrotation
					JOINT Head
					{
						OFFSET	 0.000000	-0.001747	 0.077940
						CHANNELS 3 Zrotation Xrotation Yrotation
						End Site
						{
							OFFSET	 0.000000	-0.001747	 0.077940
						}
					}
				}
				JOINT RightShoulder
				{
					OFFSET	-0.080363	 0.000306	 0.159706
					CHANNELS 3 Zrotation Xrotation Yrotation
					JOINT RightArm
					{
						OFFSET	 0.000000	 0.000000	 0.164196
						CHANNELS 3 Zrotation Xrotation Yrotation
						JOINT RightForeArm
						{
							OFFSET	 0.000000	 0.000000	 0.365611
							CHANNELS 3 Zrotation Xrotation Yrotation
							JOINT RightHand
							{
								OFFSET	 0.000000	 0.000000	 0.360648
								CHANNELS 3 Zrotation Xrotation Yrotation
								JOINT RightHandIndex1
								{
									OFFSET	 0.000000	 0.000000	 0.069977
									CHANNELS 3 Zrotation Xrotation Yrotation
									JOINT RightHandIndex2
									{
										OFFSET	 0.000000	 0.000000	 0.052305
										CHANNELS 3 Zrotation Xrotation Yrotation
										JOINT RightHandIndex3
										{
											OFFSET	 0.009002	-0.000782	 0.042196
											CHANNELS 3 Zrotation Xrotation Yrotation
											End Site
											{
												OFFSET	 0.009002	-0.000782	 0.042196
											}
										}
									}
								}
							}
						}
					}
				}
			}
		}
	}
}
MOTION
Frames:    9
Frame Time: 0.03333334
-0.713795	-0.006206	 1.272917	-176.949500	-6.022004	-1.468724	 16.196460	 9.043592	 176.019700	-3.801960	-0.511651	-0.047149	-11.080020	 65.696160	 2.645075	-2.385833	 28.452760	 0.000004	-15.188520	 2.871372	-174.663800	 1.865897	-13.556140	 0.489238	 13.813710	 72.963760	-7.743107	 2.384659	 28.388700	-0.000001	 9.935577	 7.036692	-0.814666	 6.280345	 13.567970	 10.315800	-21.351410	-6.351794	-18.497880	-91.776180	 78.527420	-180.000000	 17.285410	-6.962130	-6.606005	-13.360190	-0.043671	-0.495877	 0.656213	-8.863078	-2.261747	-4.130354	 21.526190	 0.991307	-5.167926	 0.731697	 3.519349	-1.378229	 35.397820	-2.634230	-7.894292	 0.881347	 3.330338	-9.368386	-16.659060	-5.614158	 89.782140	 78.203890	 180.000000	 46.067360	-7.437950	 18.115730	 6.830900	-0.042173	 0.476564	 19.466640	 35.997300	-10.170410	 5.716295	 19.173350	-3.684826	 5.027458	 0.246833	-9.377971	-2.350882	 35.473990	 5.254307
-0.713756	-0.006212	 1.272905	-176.903000	-6.118156	-1.482599	 16.476860	 9.124201	 175.950400	-3.977064	-0.511129	-0.048682	-10.650360	 65.494290	 2.394953	-2.385833	 28.452760	 0.000004	-15.333990	 2.982821	-174.599800	 1.996561	-13.526290	 0.518772	 13.556810	 72.718830	-7.616493	 2.384659	 28.388700	-0.000001	 9.923202	 7.127223	-0.813693	 6.302947	 13.670530	 10.321600	-21.461350	-6.435901	-18.585400	-91.776180	 78.527430	-180.000000	 17.653040	-6.892841	-6.612261	-13.445800	-0.042829	-0.495666	 0.466613	-9.032294	-2.258235	-4.130354	 21.526190	 0.991307	-5.167926	 0.731697	 3.519349	-1.378229	 35.397820	-2.634230	-7.999902	 0.931878	 3.411889	-9.460378	-16.765450	-5.740388	 89.782100	 78.203890	-180.000000	 46.631780	-7.184130	 18.212680	 6.943158	-0.041244	 0.477160	 20.001840	 36.307050	-10.248880	 5.716295	 19.173350	-3.684826	 5.027458	 0.246833	-9.377971	-2.350882	 35.473990	 5.254307
-0.713578	-0.006245	 1.272835	-176.688200	-6.568477	-1.545047	 17.773940	 9.500332	 175.608600	-4.786847	-0.510485	-0.055909	-8.692317	 64.567100	 1.256670	-2.385833	 28.452760	 0.000004	-16.012500	 3.514169	-174.293200	 2.601058	-13.379460	 0.653390	 12.399370	 71.587790	-7.062437	 2.384659	 28.388700	-0.000001	 9.854981	 7.560175	-0.812233	 6.394823	 14.113480	 10.350370	-21.967220	-6.808506	-18.986620	-91.776150	 78.527420	 180.000000	 19.388750	-6.507969	-6.693744	-13.843280	-0.039751	-0.501109	-0.405279	-9.830392	-2.251075	-4.130354	 21.526190	 0.991307	-5.167926	 0.731697	 3.519349	-1.378229	 35.397820	-2.634230	-8.491130	 1.162683	 3.793128	-9.891149	-17.253330	-6.334887	 89.782100	 78.203870	 180.000000	 49.299520	-5.887535	 18.617190	 7.463755	-0.037080	 0.479214	 22.605120	 37.572130	-10.715580	 5.716295	 19.173350	-3.684826	 5.027458	 0.246833	-9.377971	-2.350882	 35.473990	 5.254307
-0.713242	-0.006352	 1.272601	-176.262600	-7.463052	-1.652739	 20.294170	 10.245500	 174.824400	-6.344105	-0.509783	-0.069901	-5.053070	 62.818370	-0.818799	-2.385833	 28.452760	 0.000004	-17.312920	 4.413989	-173.650700	 3.768895	-13.521750	 0.934191	 10.538240	 69.673740	-6.374801	 2.384659	 28.388700	-0.000001	 9.632065	 8.448915	-0.841492	 6.470599	 14.794300	 10.445330	-22.910170	-7.407853	-19.738260	-91.776130	 78.527420	 180.000000	 22.800760	-3.830042	-2.890106	-14.635490	-0.650020	-9.807038	-2.060195	-11.432780	-2.285667	-4.130354	 21.526190	 0.991307	-5.167926	 0.731697	 3.519349	-1.378229	 35.397820	-2.634230	-9.448356	 1.590038	 4.560439	-10.742480	-18.151200	-7.556210	 89.782100	 78.203900	 180.000000	 54.356980	-2.740421	 19.031220	 8.471312	-0.029246	 0.490744	 28.155420	 39.153750	-11.518490	 5.716295	 19.173350	-3.684826	 5.027458	 0.246833	-9.377971	-2.350882	 35.473990	 5.254307
-0.713386	-0.006502	 1.272175	-176.147800	-7.569455	-1.592085	 19.895310	 8.468996	 174.676200	-6.224348	-4.576492	-0.617104	-6.857646	 65.048860	 1.003235	-2.385833	 28.452760	 0.000004	-17.093970	 4.525270	-173.623200	 3.650846	-14.147640	 0.947579	 11.960720	 70.326490	-7.780104	 2.384659	 28.388700	-0.000001	 9.184435	 8.563454	-1.130784	 5.989310	 14.178250	 10.891580	-22.606870	-6.748815	-19.650520	-91.776180	 78.527400	-180.000000	 20.346580	 1.805620	 5.924592	-14.722950	-2.262035	-31.623110	-1.954822	-11.260760	-2.334157	-4.130354	 21.526190	 0.991307	-5.167926	 0.731697	 3.519349	-1.378229	 35.397820	-2.634230	-9.380627	 1.524059	 4.736711	-10.650770	-17.802930	-7.875141	 89.782050	 78.203830	-180.000000	 51.001050	-1.594364	 18.445640	 8.473574	-0.030257	 0.509066	 27.852940	 38.284640	-6.352730	 5.716295	 19.173350	-3.684826	 5.027458	 0.246833	-9.377971	-2.350882	 35.473990	 5.254307
-0.713561	-0.006736	 1.271494	-176.027300	-7.736539	-1.572270	 19.529340	 6.789860	 174.438100	-6.175823	-8.739554	-1.167531	-9.289622	 67.365070	 3.520944	-2.385833	 28.452760	 0.000004	-16.866780	 4.673552	-173.488800	 3.563198	-15.101200	 0.987070	 13.677530	 71.236340	-9.509610	 2.384659	 28.388700	-0.000001	 8.558896	 8.772183	-1.386865	 5.324102	 13.300640	 11.363720	-22.262340	-5.976477	-19.523670	-91.776120	 78.527430	 180.000000	 16.845900	 8.328875	 11.613690	-15.188400	-3.601833	-48.312950	-1.886976	-11.100430	-2.377495	-4.130354	 21.526190	 0.991307	-5.167926	 0.731697	 3.519349	-1.378229	 35.397820	-2.634230	-9.308519	 1.446933	 4.882678	-10.557640	-17.454020	-8.144509	 89.782130	 78.203900	 180.000000	 45.675390	 4.122266	 1.455604	 9.058026	-1.925548	 34.124240	 37.352780	 28.479210	-17.146820	 5.716295	 19.173350	-3.684826	 5.027458	 0.246833	-9.377971	-2.350882	 35.473990	 5.254307
-0.713781	-0.007051	 1.270521	-175.924000	-7.971643	-1.706816	 19.433450	 5.692692	 174.162500	-6.302328	-12.067290	-1.633131	-12.060570	 69.303110	 6.539091	-2.385833	 28.452760	 0.000004	-16.723960	 4.825312	-173.111000	 3.611723	-16.383310	 1.082390	 14.959410	 72.318090	-10.880720	 2.384659	 28.388700	-0.000001	 7.774389	 9.122511	-1.383975	 4.524960	 12.185470	 11.655130	-21.959860	-5.262205	-19.308450	-91.776180	 78.527400	-180.000000	 12.864300	 16.863140	 15.795270	-16.023330	-4.637173	-62.919420	-1.948735	-11.080630	-2.403373	-4.130354	 21.526190	 0.991307	-5.167926	 0.731697	 3.519349	-1.378229	 35.397820	-2.634230	-9.243243	 1.349926	 4.864223	-10.495140	-17.209010	-8.128757	 89.782140	 78.203870	 180.000000	 39.781560	 10.333390	-9.039536	 9.904497	-2.832077	 54.856290	 40.938190	 20.493610	-17.362090	 5.716295	 19.173350	-3.684826	 5.027458	 0.246833	-9.377971	-2.350882	 35.473990	 5.254307
-0.713977	-0.007442	 1.269344	-175.864200	-8.188505	-1.853886	 19.422800	 4.740454	 173.774400	-6.472817	-15.215240	-2.095380	-15.698750	 71.015880	 10.503670	-2.385833	 28.452760	 0.000004	-16.458170	 5.063142	-172.703400	 3.613717	-17.787150	 1.172849	 16.667500	 73.625610	-12.619040	 2.384659	 28.388700	-0.000001	 6.821338	 9.447849	-1.324532	 3.546504	 10.822770	 11.872720	-21.586780	-4.471744	-19.017190	-91.776150	 78.527400	 180.000000	 8.324126	 28.287960	 18.452330	-16.936250	-5.293241	-74.616420	-2.076051	-11.082140	-2.422154	-4.130354	 21.526190	 0.991307	-5.167926	 0.731697	 3.519349	-1.378229	 35.397820	-2.634230	-9.103713	 1.145171	 4.760009	-10.379590	-16.872140	-7.857771	 89.782100	 78.203890	 180.000000	 31.452960	 18.086340	-16.434520	 10.735760	-3.403520	 71.156490	 41.476350	 12.085650	-12.584710	 5.716295	 19.173350	-3.684826	 5.027458	 0.246833	-9.377971	-2.350882	 35.473990	 5.254307
-0.714127	-0.007860	 1.268143	-175.858300	-8.347165	-1.990856	 19.504240	 3.965090	 173.324100	-6.669834	-17.930030	-2.519264	-19.849950	 72.316250	 15.031850	-2.385833	 28.452760	 0.000004	-16.090140	 5.367652	-172.332200	 3.562171	-19.089300	 1.238672	 18.598910	 74.968830	-14.508540	 2.384659	 28.388700	-0.000001	 5.820696	 9.698172	-1.214600	 2.519879	 9.378068	 11.946880	-21.185520	-3.705526	-18.655160	-91.776120	 78.527420	 179.999900	 4.654371	 41.207850	 19.125760	-17.506680	-5.567338	-80.970100	-2.259971	-11.110670	-2.435240	-4.130354	 21.526190	 0.991307	-5.167926	 0.731697	 3.519349	-1.378229	 35.397820	-2.634230	-8.897009	 0.841236	 4.574021	-10.219570	-16.463110	-7.337337	 89.782140	 78.203830	 180.000000	 20.893310	 26.809170	-19.184820	 11.382270	-3.791198	 82.272640	 39.381090	 3.681244	-4.897503	 5.716295	 19.173350	-3.684826	 5.027458	 0.246833	-9.377971	-2.350882	 35.473990	 5.254307
